# xmcd
#
# Track frame offsets:
#	150
#	15055
#	33007
#	50465
#	62407
#	78499
#	93053
#	111662
#	128454
#	144467
#	157611
#	172068
#	186269
#
# Disc length: 2715 seconds
# Revision: 0
# Processed by: cddbd v1.5.2PL0 Copyright (c) Steve Scherf et al.
# Submitted via: dBpowerAMP V12.0
#
DISCID=920a990d
DTITLE=Jan Preston - My Life As A Piano
DYEAR=2013
DGENRE=Blues Piano
TTITLE0=Honky Tonk Woman
TTITLE1=1968 Jaguar
TTITLE2=Boogie The Blues Away
TTITLE3=Boogie Fur Elise
TTITLE4=The Housework Blues
TTITLE5=20 Fingers On 88 Keys
TTITLE6=Nobody's Business
TTITLE7=Bumble Boogie
TTITLE8=The Ivories Are Calling
TTITLE9=Don't Run Don't Hide
TTITLE10=Keeper Of The Eighty Eights
TTITLE11=Honky Tonk Train Blues
TTITLE12=My Baby's Leaving Home
EXTD=
EXTT0=
EXTT1=
EXTT2=
EXTT3=
EXTT4=
EXTT5=
EXTT6=
EXTT7=
EXTT8=
EXTT9=
EXTT10=
EXTT11=
EXTT12=
PLAYORDER=
